# xmcd
#
# Track frame offsets: 
#        150
#        52390
#        89300
#        126597
#        177421
#        226098
#        307894
#
# Disc length: 4739 seconds
#
# Revision: 1
# Processed by: cddbd v1.5.2PL0 Copyright (c) Steve Scherf et al.
# Submitted via: ExactAudioCopy v0.99pb4
#
DISCID=5c128107
DTITLE=John Coltrane - My Favourite Things
DYEAR=2002
DGENRE=Jazz
TTITLE0=Traneing In
TTITLE1=I Want To Talk About You
TTITLE2=Mr PC
TTITLE3=Made Man Miles
TTITLE4=Afro Blue
TTITLE5=Mr RCM Jnr - My Favourite Things
TTITLE6=Stuff I'm Partial To
EXTD=YEAR: 2002
EXTT0=
EXTT1=
EXTT2=
EXTT3=
EXTT4=
EXTT5=
EXTT6=
PLAYORDER=
